<svg width="120" height="132" viewBox="0 0 120 132" fill="none" xmlns="http://www.w3.org/2000/svg">
<path d="M19.0003 103.326C6.53369 92.4072 -4.83525 70.2273 2.11404 44.3044C8.98173 18.6947 32.2856 -0.0105248 60.1406 4.44298e-06C87.4061 0.0105337 111.178 18.7815 117.965 44.4307C124.793 70.2405 113.247 92.6967 101.028 103.344C112.047 90.9541 117.196 76.5449 115.661 59.9771C114.292 45.1941 107.841 32.8012 96.6955 23.1275C75.7292 4.93032 44.6758 4.57495 23.1883 23.1906C15.5151 29.8372 10.0557 38.1027 6.88905 47.7869C3.73291 57.4449 3.14591 67.2792 5.34915 77.2161C7.54713 87.1241 12.101 95.845 18.9977 103.329L19.0003 103.326Z" fill="#19315E"/>
<path d="M48.4167 15.9359C48.4167 16.8888 48.4746 17.6285 48.4088 18.3577C47.7271 25.9861 46.2319 33.446 43.6365 40.6612C41.4253 46.8103 38.4719 52.5724 34.2023 57.5632C31.2988 60.9563 27.9347 63.8176 23.7678 65.597C23.2571 65.8155 22.707 65.9392 21.8594 66.2025C22.4411 65.3049 22.8886 64.6889 23.2598 64.0282C25.2208 60.522 26.5291 56.763 27.5767 52.8962C29.1377 47.1314 30.1617 41.2614 30.9198 35.3492C31.3646 31.8798 31.5305 28.3736 31.8174 24.8831C31.8306 24.7094 31.8358 24.533 31.8332 24.3567C31.8148 22.9142 32.4176 22.0139 33.7653 21.2848C37.9586 19.0105 42.3361 17.2837 46.9769 16.2097C47.3954 16.1123 47.8218 16.0439 48.4167 15.9307V15.9359Z" fill="#DC1C16"/>
<path d="M98.6847 65.1363C98.1188 64.9705 97.5239 64.8704 96.9948 64.6256C94.7205 63.5701 92.6804 62.175 90.7641 60.535C87.8317 58.0238 85.5258 55.0256 83.441 51.8274C81.1562 48.3238 79.511 44.5016 78.0316 40.6085C76.1258 35.5939 74.9466 30.382 74.0489 25.1121C73.6251 22.6166 73.4514 20.0791 73.1697 17.56C73.1461 17.3441 73.1487 17.123 73.154 16.9019C73.1855 15.9201 73.3487 15.77 74.3753 16.0517C76.318 16.5808 78.2817 17.0677 80.1691 17.7574C82.9224 18.7629 85.6048 19.9448 88.1502 21.4321C89.082 21.977 89.4006 22.6956 89.469 23.6511C89.5611 24.9146 89.6638 26.1782 89.7349 27.4443C90.1113 34.1383 91.0615 40.7611 92.4488 47.3077C93.5675 52.5828 94.9495 57.7974 97.5739 62.5777C97.9898 63.3358 98.4346 64.0755 98.8663 64.8257L98.6794 65.1337L98.6847 65.1363Z" fill="#DC1C16"/>
<path d="M29.7238 24.2013C29.7238 24.6593 29.7686 25.1305 29.7159 25.5911C29.2184 30.0239 28.7815 34.4673 28.1813 38.8869C27.2363 45.8494 25.7438 52.6907 23.1325 59.2399C22.2744 61.3932 21.2057 63.4543 19.6711 65.2521C17.8205 67.4185 14.8408 68.2714 11.8189 66.6867C11.1713 66.3472 10.7186 65.8497 10.6659 65.0521C10.5185 62.8699 10.2842 60.693 10.1947 58.5081C10.1131 56.5839 10.2921 54.6439 10.15 52.725C9.96047 50.1664 10.8186 47.9157 11.7794 45.6441C13.9537 40.5084 16.9808 35.9177 20.6555 31.7534C22.9772 29.1211 25.5516 26.7415 28.4287 24.712C28.713 24.5119 29.0263 24.3487 29.3343 24.1855C29.3974 24.1513 29.5027 24.1908 29.7212 24.2039L29.7238 24.2013Z" fill="#DC1C16"/>
<path d="M91.4204 23.8275C92.7681 24.2329 93.6236 25.07 94.5186 25.8018C98.9277 29.4159 102.631 33.6671 105.619 38.5158C107.554 41.6562 109.133 44.986 110.307 48.4923C110.484 49.0213 110.552 49.6083 110.557 50.1664C110.581 52.9303 110.631 55.6942 110.544 58.4555C110.481 60.4192 110.202 62.375 110.044 64.3361C109.991 64.9784 109.654 65.368 109.133 65.6786C106.617 67.1843 103.64 66.8394 101.663 64.8099C99.7806 62.8752 98.625 60.5219 97.6484 58.0765C95.3899 52.4328 94.1396 46.5154 93.1893 40.5374C92.6944 37.4287 92.2759 34.3041 91.8968 31.1769C91.6415 29.05 91.5125 26.9073 91.3388 24.7699C91.3177 24.5198 91.3783 24.2619 91.4204 23.8223V23.8275Z" fill="#DC1C16"/>
<path d="M11.0933 68.7849C13.0491 68.7086 14.6127 69.2877 16.1894 69.7773C18.4611 70.4827 20.1668 71.8989 21.433 73.9179C22.6517 75.8579 23.7099 77.8874 24.3969 80.0564C25.5473 83.6864 26.6107 87.3479 27.5294 91.0437C28.2348 93.8787 26.6897 96.2925 24.0337 96.8821C22.378 97.248 20.8933 96.8058 19.6404 95.6897C16.7475 93.11 14.8153 89.9434 13.9177 86.1608C12.9569 82.1096 12.1751 78.0296 11.7619 73.8811C11.5987 72.2359 11.3354 70.6038 11.0933 68.7875V68.7849Z" fill="#DC1C16"/>
<path d="M93.3887 89.9723C93.6888 88.7062 94.0599 86.8609 94.5706 85.0578C95.6209 81.3515 96.7054 77.6479 98.598 74.2548C99.0666 73.4151 99.5694 72.5912 100.12 71.8015C101.217 70.2326 102.807 69.2982 104.555 68.6691C105.7 68.2558 106.911 67.9978 108.111 67.7635C109.283 67.5345 109.58 67.7793 109.488 68.9533C109.362 70.6064 109.14 72.2543 108.925 73.8994C108.401 77.89 107.716 81.8516 106.637 85.7369C105.658 89.2616 103.736 92.2177 100.93 94.513C99.4641 95.7134 97.6557 95.9608 95.8789 95.0079C94.1205 94.0656 93.3834 92.5204 93.3887 89.975V89.9723Z" fill="#DC1C16"/>
<path d="M22.3745 70.946C23.9434 71.3566 25.3412 72.17 26.7152 72.9992C30.6426 75.3683 33.7119 78.656 36.3811 82.3228C37.6156 84.018 38.7449 85.7975 39.8004 87.6085C41.5746 90.6593 40.3795 94.234 37.1997 95.6344C34.1673 96.9716 30.6137 95.4686 29.6423 92.3124C29.0001 90.2276 28.6342 88.0586 28.0761 85.9449C26.9784 81.7937 25.7176 77.6952 23.7039 73.8731C23.2195 72.9518 22.6746 72.0647 22.1587 71.1592C22.2324 71.0881 22.3061 71.0144 22.3772 70.9434L22.3745 70.946Z" fill="#DC1C16"/>
<path d="M98.9746 69.7825C98.6351 70.48 98.4613 70.9223 98.2192 71.3197C96.0712 74.8365 94.7998 78.7113 93.6942 82.636C92.9809 85.163 92.457 87.7427 91.8305 90.2934C90.8461 94.2893 87.0529 95.2132 84.4943 94.2866C81.3408 93.1442 79.8246 89.6406 81.375 86.6661C82.4437 84.6182 83.7467 82.6729 85.0997 80.7934C87.5688 77.3582 90.4486 74.2942 94.047 72.0068C95.2631 71.2355 96.5977 70.6511 97.8901 70.0036C98.106 69.8957 98.3824 69.9009 98.9799 69.7851L98.9746 69.7825Z" fill="#DC1C16"/>
<path d="M93.5862 104.553C94.5339 104.218 95.313 103.947 96.0896 103.666C96.5923 103.484 97.074 103.444 97.311 104.021C97.5321 104.561 97.4162 105.09 96.8714 105.384C96.1475 105.777 95.3894 106.108 94.6602 106.458C94.7918 107.18 94.9287 107.843 95.0261 108.512C95.1261 109.207 95.4025 109.42 96.0869 109.207C96.6029 109.046 97.0398 108.522 97.6637 108.946C98.3428 109.407 98.5508 110.112 98.6982 110.852C98.9246 111.976 98.9561 113.102 98.714 114.234C98.4955 115.261 97.1899 116.477 96.1949 116.406C95.8684 116.382 95.5736 115.911 95.1919 115.579C95.0419 116.361 94.9919 117.185 94.7076 117.917C94.4365 118.614 93.9205 119.217 93.3362 119.82C92.6281 118.52 92.9387 117.161 92.8334 115.858C92.7281 114.558 92.6518 113.255 92.557 111.878C91.7436 111.87 91.3567 112.215 91.3804 112.958C91.3962 113.437 91.4936 113.911 91.5462 114.39C91.5831 114.737 91.6304 115.087 91.6199 115.435C91.6094 115.887 91.4988 116.419 90.9671 116.388C90.7275 116.374 90.4011 115.879 90.3143 115.55C89.9063 114 90.0089 112.426 90.288 110.865C90.4248 110.099 90.7828 109.786 91.5541 109.899C92.328 110.012 92.6018 109.717 92.6676 109.02C92.707 108.585 92.8624 108.151 92.8413 107.725C92.8255 107.427 92.5939 107.143 92.4596 106.853C92.2359 107.027 91.9726 107.169 91.7963 107.382C91.4936 107.748 91.2803 108.191 90.9566 108.533C90.8144 108.683 90.4301 108.785 90.2774 108.699C90.1169 108.609 89.9852 108.222 90.0458 108.033C90.4433 106.785 90.8723 105.548 91.3461 104.329C91.5172 103.889 91.8121 103.481 92.12 103.115C92.2938 102.907 92.6386 102.663 92.8439 102.71C93.0703 102.763 93.2914 103.1 93.3941 103.363C93.5152 103.673 93.5099 104.034 93.5836 104.558L93.5862 104.553ZM96.6213 112.597C96.6029 112.597 96.5818 112.597 96.5634 112.597C96.5634 112.16 96.6081 111.718 96.5528 111.289C96.4818 110.741 96.0817 110.517 95.6236 110.82C95.3446 111.004 95.0761 111.397 95.0393 111.72C94.955 112.452 95.0156 113.202 95.0261 113.945C95.0314 114.353 95.0656 114.758 95.6078 114.8C96.1554 114.842 96.4133 114.498 96.4949 114.029C96.5765 113.558 96.5844 113.073 96.6239 112.597H96.6213Z" fill="#0F1936"/>
<path d="M70.6668 109.372C71.7381 109.225 72.8121 109.109 73.8756 108.92C74.7732 108.759 75.4944 109.138 75.7524 110.099C75.9209 110.728 76.0341 111.389 76.0604 112.039C76.1104 113.35 76.1025 114.666 76.0841 115.979C76.0709 116.98 75.7234 117.88 75.0206 118.593C74.3283 119.296 73.7281 119.251 73.2543 118.409C72.8726 117.73 72.3488 117.538 71.6381 117.535C70.2772 117.532 68.9189 117.504 67.6659 118.167C67.0947 118.47 66.7578 118.204 66.534 117.688C66.4814 117.567 66.4314 117.446 66.3998 117.317C65.8391 115.206 65.8839 113.063 66.2076 110.933C66.3814 109.799 66.613 109.678 67.7897 109.759C68.403 109.801 68.7662 109.538 69.0795 109.054C69.4349 108.504 69.806 107.956 70.2377 107.467C70.5588 107.101 70.9905 106.79 71.4723 107.28C71.9224 107.738 71.8171 108.288 71.2143 108.691C71.009 108.827 70.7747 108.922 70.5536 109.035C70.5931 109.149 70.6326 109.262 70.672 109.375L70.6668 109.372ZM68.4319 113.968C68.5504 112.963 69.2559 112.271 69.8034 111.502C70.1482 111.018 70.5404 110.817 71.1143 111.307C71.367 111.523 71.8382 111.578 72.1988 111.549C72.7384 111.507 73.2649 111.326 73.8703 111.186C73.7439 110.752 73.6255 110.349 73.507 109.944C72.5068 110.138 71.6091 110.291 70.7221 110.496C70.1272 110.636 69.5401 110.823 68.9716 111.046C68.403 111.27 68.0187 111.718 67.9923 112.339C67.9423 113.476 67.9371 114.616 67.9476 115.753C67.9529 116.38 68.3793 116.461 68.8663 116.298C69.5954 116.053 69.9087 115.456 70.193 114.676C69.5717 114.426 69.0242 114.205 68.4319 113.966V113.968ZM73.9071 112.492C73.8203 112.465 73.736 112.439 73.6492 112.413C73.257 112.905 72.6752 113.342 72.5094 113.903C72.204 114.932 71.6197 115.508 70.6247 115.764C70.5904 115.771 70.5931 115.916 70.5509 116.135C71.4301 116.135 72.2883 116.135 73.1464 116.135C73.6176 116.135 73.8887 115.877 73.8992 115.419C73.9203 114.445 73.9045 113.468 73.9045 112.494L73.9071 112.492ZM70.0745 113.16C71.2011 113.868 71.5802 113.692 71.8566 112.328C71.1617 112.421 70.4746 112.444 70.0745 113.16Z" fill="#0F1936"/>
<path d="M48.798 118.004C50.3695 117.746 50.6169 117.541 50.8749 115.961C50.996 115.235 50.9749 114.482 50.9881 113.74C50.9986 113.118 50.6222 112.987 50.1142 113.171C49.7035 113.318 49.3271 113.553 48.9191 113.711C47.8872 114.111 46.8422 113.376 46.8369 112.258C46.8343 111.726 47.166 111.476 47.6293 111.36C48.2663 111.205 48.9086 111.07 49.5456 110.918C49.843 110.847 50.1747 110.815 50.4169 110.654C50.6354 110.51 50.8986 110.199 50.8775 109.986C50.8565 109.781 50.5301 109.546 50.2879 109.436C50.0641 109.336 49.7272 109.465 49.5219 109.346C49.2113 109.167 48.8559 108.912 48.7296 108.604C48.5558 108.172 48.7454 107.709 49.2218 107.525C50.2826 107.119 51.354 106.738 52.4358 106.395C52.7096 106.309 53.0571 106.345 53.3414 106.427C54.26 106.69 54.4706 107.588 53.7783 108.233C53.5888 108.409 53.2887 108.512 53.1755 108.72C53.0439 108.959 52.986 109.299 53.0492 109.559C53.0781 109.673 53.4835 109.728 53.723 109.746C54.3206 109.799 54.9602 109.691 55.5078 109.875C56.458 110.194 56.5449 111.112 55.6868 111.655C55.2235 111.95 54.6444 112.11 54.0942 112.208C53.3887 112.334 53.1466 112.71 53.165 113.382C53.1887 114.3 53.1045 115.224 53.1782 116.138C53.3308 118.049 52.041 118.938 50.6801 119.77C50.509 119.873 50.0457 119.76 49.8983 119.588C49.485 119.107 49.1639 118.546 48.8006 118.001L48.798 118.004Z" fill="#0F1936"/>
<path d="M30.3428 105.645C30.564 105.835 30.6614 105.914 30.7535 105.998C31.0641 106.274 31.3721 106.551 31.6801 106.827C31.3484 107.069 31.043 107.359 30.6824 107.54C29.9638 107.901 29.8769 108.404 30.5008 108.922C30.5982 109.004 30.7482 109.025 30.8483 109.101C31.4747 109.586 31.4668 109.846 30.8167 110.262C30.5613 110.425 30.2323 110.533 30.0638 110.762C29.9059 110.978 29.8006 111.365 29.8875 111.589C29.9506 111.749 30.3692 111.807 30.6377 111.836C30.8377 111.857 31.0509 111.76 31.3747 111.691C31.4274 112.426 30.9667 112.8 30.564 113.131C29.8164 113.745 29.4242 114.5 29.182 115.437C28.8582 116.703 28.366 117.93 27.113 118.867C26.9314 117.483 27.7263 116.364 27.6763 115C27.342 115.121 27.0709 115.192 26.8261 115.316C26.0601 115.7 25.7468 115.656 25.4152 115.077C25.0677 114.471 25.1783 113.829 25.7705 113.473C26.1391 113.252 26.5787 113.15 26.9893 112.997C27.2736 112.892 27.6026 112.847 27.8343 112.673C28.3291 112.302 28.1923 111.707 27.5974 111.51C27.392 111.441 27.1341 111.457 26.9761 111.336C26.7498 111.16 26.4549 110.896 26.447 110.662C26.4391 110.46 26.7576 110.194 26.9893 110.044C27.2788 109.854 27.7132 109.833 27.9211 109.596C28.1422 109.346 28.1712 108.925 28.2844 108.58C28.0106 108.525 27.7 108.359 27.4684 108.435C26.5892 108.725 26.039 108.422 25.5863 107.501C26.1364 107.211 26.6576 106.937 27.2604 106.619C27.0419 106.116 26.7445 105.629 26.6208 105.1C26.4892 104.532 26.2575 103.845 26.9261 103.431C27.3394 103.176 27.9317 103.763 28.1817 104.658C28.3291 105.19 28.4371 105.735 28.6371 106.585C29.0188 106.077 29.2504 105.803 29.4426 105.503C29.9638 104.695 30.435 103.85 30.9904 103.065C31.4695 102.394 31.8959 102.305 32.2723 102.66C32.754 103.113 32.6935 103.7 32.0775 104.234C31.5248 104.711 30.9456 105.155 30.335 105.648L30.3428 105.645Z" fill="#0F1936"/>
<path d="M34.3908 106.701C33.7327 106.843 33.3537 106.982 32.9772 106.98C32.7798 106.98 32.5245 106.751 32.4166 106.559C32.3666 106.466 32.5666 106.103 32.714 106.056C33.5379 105.798 34.3697 105.545 35.2173 105.4C35.6727 105.324 36.2176 106.043 36.2782 106.724C36.3282 107.285 36.2887 107.851 36.2887 108.591C37.2574 108.346 37.9523 108.651 38.3393 109.423C38.4656 109.673 38.4498 110.125 38.2998 110.354C38.0602 110.723 37.6943 110.552 37.3995 110.294C37.1731 110.096 36.9283 109.917 36.6204 109.673C36.1913 110.27 36.3361 110.883 36.4229 111.444C36.4519 111.631 36.8388 111.852 37.0889 111.894C37.7654 112.007 38.1918 112.392 38.4946 112.96C38.7341 113.413 38.6709 113.876 38.2208 114.087C38.005 114.19 37.5969 114.008 37.3363 113.853C37.1337 113.732 37.0257 113.453 36.8757 113.242C36.773 113.279 36.6677 113.316 36.5651 113.353C36.5072 113.655 36.4282 113.953 36.3966 114.258C36.3176 114.995 36.2887 115.737 36.1834 116.472C36.1334 116.809 36.0412 117.23 35.8096 117.435C35.2437 117.938 34.5856 118.336 33.967 118.775C33.6301 118.254 33.2931 117.733 32.9325 117.172C34.4329 116.701 34.4382 116.701 34.475 115.327C34.4882 114.811 34.475 114.295 34.2302 113.671C33.9802 113.932 33.7301 114.192 33.4826 114.456C32.7061 115.277 32.4613 115.235 31.6953 114.058C32.2718 113.695 32.8456 113.324 33.4274 112.966C34.1592 112.515 34.5356 111.915 34.4882 111.012C34.4145 109.625 34.425 108.233 34.3961 106.698L34.3908 106.701Z" fill="#0F1936"/>
<path d="M55.7154 106.293C55.9181 105.914 56.0971 105.577 56.3814 105.05C55.8865 104.998 55.5154 104.884 55.1705 104.937C54.1018 105.103 53.0463 105.342 51.9828 105.535C51.6511 105.595 51.2747 105.69 50.9746 105.595C49.6137 105.161 48.4687 105.842 47.3421 106.351C46.9788 106.514 46.7471 107.288 46.7182 107.798C46.6787 108.538 46.5313 109.183 46.0364 109.725C45.4994 110.312 44.9124 110.225 44.7992 109.483C44.536 107.769 44.6729 106.071 45.3783 104.458C45.5573 104.05 45.9232 103.745 46.3102 104.058C47.2394 104.813 48.2028 104.524 49.1873 104.313C49.5558 104.234 49.9296 104.184 50.435 104.097C50.1718 103.679 49.9296 103.415 49.8348 103.108C49.7559 102.847 49.7427 102.447 49.8901 102.268C50.0402 102.089 50.4824 101.973 50.6982 102.065C51.2484 102.297 51.867 102.555 52.2276 102.994C52.8304 103.726 53.4911 103.947 54.3887 103.826C55.3811 103.692 56.384 103.608 57.3817 103.589C57.7265 103.581 58.1661 103.75 58.4056 103.992C58.732 104.324 58.9637 104.782 59.1348 105.224C59.4586 106.058 59.1558 106.498 58.253 106.49C57.4422 106.482 56.6315 106.372 55.7128 106.298L55.7154 106.293Z" fill="#0F1936"/>
<path d="M69.3613 104.111C69.3113 103.642 69.2534 103.392 69.2666 103.147C69.2955 102.589 69.6535 102.323 70.151 102.487C70.6801 102.66 71.1487 103.01 71.6646 103.237C72.1253 103.437 72.6201 103.729 73.0887 103.708C74.5575 103.642 76.0685 104.045 77.4978 103.35C77.6689 103.268 77.9979 103.41 78.2033 103.534C78.377 103.639 78.4955 103.855 78.6113 104.04C78.9561 104.584 79.5036 105.14 79.0667 105.819C78.6639 106.446 77.9743 106.164 77.3715 106.122C76.8266 106.085 76.279 106.114 75.6841 106.114C75.8737 105.753 76.0816 105.356 76.358 104.832C74.9129 104.463 73.5941 104.642 72.3069 105.003C72.0279 105.082 71.8462 105.5 71.6172 105.758C70.9065 106.561 70.5275 106.553 69.9852 105.593C69.7167 105.114 69.3666 105.132 68.9981 105.221C68.0215 105.458 67.037 105.698 66.1025 106.053C65.8472 106.151 65.6261 106.656 65.605 106.988C65.5603 107.677 65.4102 108.285 64.8891 108.757C64.3915 109.207 63.923 109.144 63.7887 108.533C63.4387 106.94 63.6492 105.395 64.46 103.963C64.6758 103.584 65.0891 103.555 65.3655 103.832C66.6632 105.14 67.9741 103.955 69.3666 104.108L69.3613 104.111Z" fill="#0F1936"/>
<path d="M38.6368 105.645C38.0866 105.877 37.7392 106.114 37.3759 106.148C37.0837 106.174 36.7705 105.953 36.4678 105.84C36.6362 105.585 36.7547 105.184 36.9863 105.1C37.8366 104.787 38.721 104.547 39.6055 104.345C40.1688 104.216 40.7058 104.792 40.8137 105.635C40.9269 106.501 41.0164 107.372 41.0401 108.246C41.0927 110.215 41.1296 112.184 41.1085 114.15C41.1006 114.929 40.9427 115.708 40.8058 116.48C40.5979 117.64 39.7081 118.217 38.7658 118.722C38.3236 118.959 37.9971 118.764 37.8181 118.341C37.6655 117.983 37.5602 117.606 37.3943 117.119C38.9816 116.893 38.95 115.753 38.9342 114.579C38.9 112.173 38.9185 109.767 38.8842 107.361C38.8763 106.827 38.7368 106.295 38.6394 105.645H38.6368Z" fill="#0F1936"/>
<path d="M89.7459 110.549C89.4984 111.199 89.201 112.313 88.6429 113.279C88.3955 113.711 87.6427 113.887 87.0873 114.095C86.6266 114.269 86.1212 114.361 86.0264 114.927C85.9843 115.19 86.0185 115.616 86.1817 115.722C86.366 115.843 86.7424 115.727 87.0135 115.64C87.1504 115.595 87.2847 115.401 87.3294 115.248C87.5137 114.59 87.8743 114.398 88.4982 114.719C89.1062 115.029 89.5722 115.84 89.3116 116.322C89.2089 116.514 88.7719 116.719 88.6008 116.648C87.8611 116.335 87.4847 116.788 87.0057 117.196C86.445 117.675 85.8369 118.13 85.1762 118.443C84.8603 118.594 84.2681 118.528 83.9943 118.314C83.56 117.975 83.8679 117.485 84.168 117.175C84.6418 116.685 84.6997 116.124 84.6919 115.487C84.6734 114 84.6734 112.513 84.7392 111.028C84.8156 109.315 85.1578 108.986 86.8056 108.764C87.1952 108.712 87.5821 108.638 87.9638 108.549C89.2589 108.241 89.8117 108.712 89.7459 110.552V110.549ZM86.4134 110.504C87.5716 111.257 87.5611 111.247 86.4871 112.126C86.3239 112.258 86.2949 112.552 86.2028 112.773C86.4423 112.813 86.7293 112.955 86.9135 112.871C87.2531 112.716 87.6874 112.487 87.8032 112.181C88.127 111.334 88.2928 110.433 87.9849 109.515C87.239 109.727 86.7152 110.057 86.4134 110.504Z" fill="#0F1936"/>
<path d="M82.8262 111.562C82.8578 110.194 83.2447 109.154 83.7054 108.198C84.4424 106.672 85.2926 105.184 86.235 103.773C86.8747 102.815 87.0931 102.915 87.6723 103.85C87.8486 104.137 88.225 104.305 88.5199 104.513C88.9647 104.826 89.4596 105.087 89.8439 105.461C89.9518 105.566 89.8413 106.09 89.6728 106.232C89.5043 106.374 89.0779 106.387 88.8673 106.269C88.5804 106.108 88.3909 105.771 88.1566 105.513C87.8907 105.221 87.5854 105.063 87.259 105.4C86.9747 105.695 86.7483 106.035 87.1616 106.414C87.3222 106.561 87.5828 106.68 87.6301 106.856C87.7091 107.153 87.7354 107.519 87.6196 107.788C87.5722 107.898 87.0852 107.898 86.8352 107.825C86.6035 107.756 86.4193 107.522 86.1508 107.314C84.553 108.23 84.4608 110.37 82.8288 111.565L82.8262 111.562Z" fill="#0F1936"/>
<path d="M66.1055 109.104C66.4371 107.888 67.2689 106.99 68.1271 106.127C68.4588 105.793 68.9036 105.477 69.3748 105.979C69.8407 106.474 69.8091 107.18 69.2458 107.583C68.5719 108.064 67.8507 108.48 67.1426 108.912C66.8715 109.078 66.5819 109.215 66.3003 109.365C66.2344 109.278 66.1713 109.191 66.1055 109.104Z" fill="#0F1936"/>
<path d="M74.797 107.14C74.6575 107.274 74.4232 107.693 74.11 107.761C73.4256 107.909 72.599 106.953 72.5938 106.145C72.5911 105.692 72.757 105.382 73.2519 105.377C73.9705 105.366 74.7628 106.145 74.797 107.14Z" fill="#0F1936"/>
<path d="M32.4935 108.754C33.3464 108.754 33.9492 109.28 33.9571 109.846C33.9624 110.312 33.7149 110.581 33.2516 110.586C32.7489 110.591 31.867 109.736 31.9908 109.307C32.0671 109.046 32.3909 108.859 32.4962 108.751L32.4935 108.754Z" fill="#0F1936"/>
<path d="M36.4494 130.312C36.3047 130.602 36.1388 130.828 35.9467 130.997C35.4597 131.431 34.8148 131.644 34.0146 131.644H31.8008V131.463C32.0587 131.463 32.243 131.431 32.3325 131.379C32.4615 131.302 32.5299 131.149 32.5299 130.907V127.372C32.5299 127.175 32.4536 127.038 32.3167 126.969C32.2246 126.933 32.0509 126.909 31.8008 126.901V126.711H34.0198C34.8095 126.711 35.4571 126.933 35.9598 127.364C36.4626 127.82 36.7127 128.42 36.7127 129.167C36.7127 129.57 36.6205 129.949 36.4468 130.315L36.4494 130.312ZM35.3386 127.354C35.0043 127.048 34.5173 126.898 33.8698 126.898C33.6487 126.898 33.4907 126.93 33.3986 126.983C33.2617 127.059 33.2012 127.204 33.2012 127.409V130.997C33.2012 131.194 33.2696 131.323 33.4144 131.384C33.5065 131.429 33.6566 131.452 33.8777 131.452C34.6226 131.452 35.1622 131.255 35.4807 130.86C35.7703 130.502 35.9203 129.925 35.9203 129.133C35.9203 128.341 35.7229 127.72 35.336 127.354H35.3386Z" fill="#29466D"/>
<path d="M42.3246 131.02C41.8692 131.528 41.3059 131.781 40.6451 131.781C39.9844 131.781 39.429 131.544 38.9578 131.06C38.4551 130.557 38.2129 129.928 38.2129 129.175C38.2129 128.422 38.4419 127.851 38.8973 127.335C39.3448 126.832 39.916 126.574 40.6083 126.574C41.3006 126.574 41.8402 126.825 42.3114 127.319C42.7747 127.822 43.0116 128.438 43.0116 129.167C43.0116 129.896 42.7826 130.512 42.3272 131.023L42.3246 131.02ZM41.9297 127.659C41.6402 127.08 41.2006 126.793 40.6057 126.793C39.9371 126.793 39.4738 127.151 39.2132 127.856C39.0684 128.251 39 128.715 39 129.254C39 129.846 39.1131 130.349 39.3422 130.76C39.6238 131.292 40.0502 131.557 40.6188 131.557C41.09 131.557 41.477 131.352 41.7744 130.934C42.064 130.523 42.2166 129.899 42.2166 129.078C42.2166 128.538 42.1166 128.067 41.9271 127.656L41.9297 127.659Z" fill="#29466D"/>
<path d="M54.0129 128.114C53.647 127.727 53.3679 127.467 53.1837 127.333C52.9099 127.135 52.6441 127.035 52.3703 127.035C52.1281 127.035 52.0123 127.14 52.0123 127.346V131.171C52.0123 131.368 52.0965 131.489 52.2782 131.544C52.3756 131.576 52.5677 131.589 52.8415 131.589V131.779H50.4987V131.589C50.7646 131.589 50.9541 131.573 51.062 131.536C51.2437 131.476 51.3437 131.331 51.3437 131.102V127.322C51.3437 127.133 51.2147 127.033 50.9646 127.033C50.6988 127.033 50.425 127.138 50.1513 127.338C49.9223 127.506 49.6564 127.764 49.3458 128.114L49.1562 128.038L49.6195 126.843H53.7338L54.1971 128.038L54.0155 128.114H54.0129Z" fill="#29466D"/>
<path d="M58.451 131.781V131.592C58.6563 131.592 58.809 131.576 58.8985 131.531C59.0591 131.471 59.1407 131.334 59.1407 131.136V129.373H56.7769V131.181C56.7769 131.35 56.8532 131.463 57.0059 131.523C57.0901 131.56 57.2349 131.584 57.4481 131.592V131.781H55.4396V131.592C55.8819 131.592 56.1082 131.439 56.1082 131.136V127.501C56.1082 127.196 55.9398 127.038 55.6055 127.038H55.437V126.848H57.4455V127.038C57.2322 127.046 57.0796 127.069 56.9901 127.114C56.8453 127.191 56.7769 127.32 56.7769 127.501V129.128H59.1407V127.525C59.1407 127.312 59.0643 127.175 58.9117 127.098C58.8195 127.062 58.6616 127.038 58.4484 127.038V126.848H60.4779V127.038C60.2647 127.046 60.112 127.069 60.0225 127.114C59.8777 127.191 59.8093 127.32 59.8093 127.501V131.136C59.8093 131.334 59.8777 131.463 60.0304 131.523C60.1146 131.568 60.2673 131.592 60.4779 131.592V131.781H58.4484H58.451Z" fill="#29466D"/>
<path d="M65.8349 131.781H61.7443V131.6C62.0102 131.6 62.1866 131.568 62.2761 131.515C62.3971 131.439 62.4656 131.265 62.4656 130.999V127.488C62.4656 127.29 62.3892 127.161 62.2366 127.101C62.1444 127.069 61.9786 127.048 61.7417 127.048V126.851H65.7402L66.2114 128.038L66.0139 128.099C65.648 127.68 65.3453 127.406 65.1084 127.269C64.8189 127.117 64.4319 127.04 63.9291 127.04C63.6712 127.04 63.4948 127.064 63.3974 127.093C63.2158 127.161 63.1316 127.298 63.1316 127.504V129.154H63.6185C64.045 129.154 64.3477 129.07 64.5319 128.896C64.653 128.775 64.7373 128.578 64.782 128.296H64.9873V130.204H64.782C64.7294 129.633 64.3424 129.346 63.6185 129.346H63.1316V131.194C63.1316 131.468 63.3606 131.597 63.816 131.597C64.3398 131.597 64.7294 131.544 64.9794 131.428C65.2979 131.292 65.6796 130.973 66.1192 130.47L66.3009 130.531L65.8297 131.786L65.8349 131.781Z" fill="#29466D"/>
<path d="M76.0424 131.407C75.7002 131.568 75.3212 131.644 74.9105 131.644H72.2729V131.455C72.5309 131.455 72.7073 131.423 72.7968 131.379C72.9337 131.31 73.0021 131.157 73.0021 130.931V127.356C73.0021 127.159 72.9179 127.03 72.752 126.961C72.6546 126.925 72.4941 126.901 72.2729 126.901V126.711H74.592C75.0474 126.711 75.4501 126.788 75.8002 126.925C76.2714 127.122 76.5136 127.427 76.5136 127.838C76.5136 128.386 76.0582 128.78 75.1448 129.017V129.025C76.2477 129.238 76.8031 129.673 76.8031 130.333C76.8031 130.828 76.5452 131.186 76.0424 131.413V131.407ZM75.258 127.027C75.0606 126.943 74.7631 126.898 74.3683 126.898C74.1393 126.898 73.9813 126.922 73.8892 126.959C73.7365 127.027 73.6681 127.164 73.6681 127.37V128.944H74.542C74.8473 128.944 75.1053 128.875 75.3238 128.73C75.6133 128.549 75.7581 128.267 75.7581 127.878C75.7581 127.459 75.5897 127.177 75.2554 127.025L75.258 127.027ZM75.5554 129.399C75.2975 129.225 74.9553 129.133 74.5367 129.133H73.6707V130.989C73.6707 131.171 73.7312 131.3 73.8523 131.363C73.9655 131.423 74.1787 131.455 74.4999 131.455C74.9553 131.455 75.2975 131.394 75.5265 131.273C75.845 131.105 76.0135 130.794 76.0135 130.339C76.0135 129.928 75.8608 129.617 75.5581 129.404L75.5554 129.399Z" fill="#29466D"/>
<path d="M82.2471 131.644H78.1564V131.463C78.4223 131.463 78.5987 131.431 78.6882 131.378C78.8093 131.302 78.8777 131.128 78.8777 130.862V127.351C78.8777 127.153 78.8014 127.024 78.6487 126.964C78.5566 126.932 78.3907 126.911 78.1538 126.911V126.714H82.1523L82.6235 127.901L82.426 127.962C82.0602 127.543 81.7574 127.269 81.5205 127.132C81.231 126.98 80.844 126.903 80.3413 126.903C80.0833 126.903 79.9069 126.927 79.8095 126.956C79.6279 127.024 79.5437 127.161 79.5437 127.367V129.017H80.0306C80.4571 129.017 80.7598 128.933 80.9441 128.759C81.0651 128.638 81.1494 128.441 81.1941 128.159H81.3994V130.067H81.1941C81.1415 129.496 80.7545 129.209 80.0306 129.209H79.5437V131.057C79.5437 131.331 79.7727 131.46 80.2281 131.46C80.7519 131.46 81.1415 131.407 81.3916 131.291C81.7101 131.155 82.0917 130.836 82.5313 130.333L82.713 130.394L82.2418 131.649L82.2471 131.644Z" fill="#29466D"/>
<path d="M87.3562 131.347C87.0456 131.636 86.6639 131.781 86.2085 131.781C85.9953 131.781 85.761 131.728 85.5004 131.621C85.3477 131.56 85.2187 131.528 85.1266 131.528C85.0345 131.528 84.8449 131.597 84.5712 131.734L84.0474 130.473L84.2369 130.389C84.9739 131.165 85.6425 131.544 86.2374 131.544C86.527 131.544 86.785 131.444 87.0061 131.247C87.2193 131.057 87.3325 130.82 87.3325 130.533C87.3325 130.199 87.1798 129.933 86.8771 129.749C86.6955 129.644 86.398 129.536 85.9874 129.43C85.403 129.294 84.9924 129.141 84.7634 128.988C84.3843 128.746 84.2 128.388 84.2 127.917C84.2 127.506 84.3659 127.164 84.7028 126.898C84.9845 126.685 85.2872 126.572 85.6162 126.572C85.7294 126.572 85.8979 126.595 86.1269 126.64C86.348 126.685 86.5138 126.709 86.6218 126.709C86.7665 126.709 86.9192 126.677 87.0692 126.617L87.5641 127.812L87.3746 127.888C86.8508 127.159 86.2796 126.793 85.6636 126.793C85.3661 126.793 85.124 126.885 84.9344 127.059C84.7449 127.235 84.6528 127.438 84.6528 127.683C84.6528 127.988 84.7897 128.23 85.0792 128.396C85.2687 128.517 85.6109 128.633 86.0979 128.746C86.577 128.859 86.935 128.988 87.1772 129.133C87.6115 129.407 87.83 129.781 87.83 130.265C87.83 130.699 87.6694 131.055 87.3588 131.344L87.3562 131.347Z" fill="#29466D"/>
<path d="M93.9953 127.977C93.6294 127.59 93.3477 127.33 93.1661 127.196C92.8923 126.998 92.6265 126.898 92.3527 126.898C92.1105 126.898 91.9947 127.003 91.9947 127.209V131.034C91.9947 131.231 92.079 131.352 92.2606 131.405C92.3606 131.436 92.5501 131.449 92.8239 131.449V131.639H90.4812V131.449C90.747 131.449 90.9365 131.434 91.0445 131.397C91.2261 131.336 91.3261 131.191 91.3261 130.962V127.182C91.3261 126.993 91.1971 126.893 90.9471 126.893C90.6812 126.893 90.4074 126.998 90.1337 127.198C89.9047 127.367 89.6388 127.625 89.3282 127.975L89.1387 127.898L89.602 126.703H93.7163L94.1795 127.898L93.9979 127.975L93.9953 127.977Z" fill="#29466D"/>
</svg>
